<svg width="48" height="48" viewBox="0 0 48 48" fill="none" xmlns="http://www.w3.org/2000/svg">
<path d="M17 8H12C10.9391 8 9.92172 8.42143 9.17157 9.17157C8.42143 9.92172 8 10.9391 8 12V40C8 41.0609 8.42143 42.0783 9.17157 42.8284C9.92172 43.5786 10.9391 44 12 44H24M31 8H36C37.0609 8 38.0783 8.42143 38.8284 9.17157C39.5786 9.92172 40 10.9391 40 12V30" stroke="#4ABC00" stroke-width="1.5" stroke-linecap="round"/>
<path d="M16 12.8V9C16 8.73478 16.1054 8.48043 16.2929 8.29289C16.4804 8.10536 16.7348 8 17 8C17.552 8 18.008 7.552 18.104 7.008C18.4 5.304 19.548 2 24 2C28.452 2 29.6 5.304 29.896 7.008C29.992 7.552 30.448 8 31 8C31.2652 8 31.5196 8.10536 31.7071 8.29289C31.8946 8.48043 32 8.73478 32 9V12.8C32 13.1183 31.8736 13.4235 31.6485 13.6485C31.4235 13.8736 31.1183 14 30.8 14H17.2C16.8817 14 16.5765 13.8736 16.3515 13.6485C16.1264 13.4235 16 13.1183 16 12.8Z" stroke="#4ABC00" stroke-width="1.5" stroke-linecap="round"/>
<path d="M31 41L35 45L45 35" stroke="#4ABC00" stroke-width="1.5" stroke-linecap="round" stroke-linejoin="round"/>
</svg>
